<svg width="152" height="47" viewBox="0 0 152 47" fill="none" xmlns="http://www.w3.org/2000/svg">
<path fill-rule="evenodd" clip-rule="evenodd" d="M94.293 36.334C85.493 42.8407 72.693 46.3073 61.653 46.3073C46.1863 46.3073 32.3197 40.6007 21.7597 31.1073C20.9597 30.3607 21.653 29.3473 22.6663 29.934C34.0263 36.5473 48.053 40.494 62.5597 40.494C72.3197 40.494 83.093 38.4673 93.013 34.254C94.5063 33.6673 95.733 35.2673 94.293 36.334Z" fill="#919191"/>
<path fill-rule="evenodd" clip-rule="evenodd" d="M97.9732 32.1211C96.8532 30.6811 90.5065 31.4278 87.6798 31.8011C86.8265 31.9078 86.6665 31.1611 87.4665 30.6278C92.5332 27.0544 100.8 28.1211 101.76 29.2944C102.72 30.4678 101.493 38.7878 96.7465 42.7344C95.9998 43.3211 95.3065 43.0011 95.6265 42.2011C96.6932 39.5344 99.0932 33.6144 97.9732 32.1211Z" fill="#919191"/>
<path fill-rule="evenodd" clip-rule="evenodd" d="M87.84 5.56118V2.09451C87.84 1.56118 88.2133 1.24118 88.6933 1.24118H104.16C104.64 1.24118 105.067 1.61451 105.067 2.09451V5.02785C105.067 5.50785 104.64 6.14785 103.893 7.21452L95.8933 18.6278C98.88 18.5745 102.027 19.0012 104.693 20.4945C105.28 20.8145 105.44 21.3478 105.493 21.8278V25.5078C105.493 26.0412 104.96 26.6278 104.373 26.3078C99.6267 23.8012 93.28 23.5345 88.0533 26.3612C87.52 26.6278 86.9333 26.0945 86.9333 25.5612V22.0412C86.9333 21.5078 86.9333 20.5478 87.52 19.6945L96.8 6.41452H88.7467C88.2667 6.41452 87.84 6.04118 87.84 5.56118ZM31.4667 27.0545H26.7733C26.3467 27.0012 25.9733 26.6812 25.92 26.2545V2.14785C25.92 1.66785 26.3467 1.29451 26.8267 1.29451H31.2C31.68 1.29451 32 1.66785 32.0533 2.09451V5.24118H32.16C33.28 2.20118 35.4667 0.761182 38.3467 0.761182C41.28 0.761182 43.1467 2.20118 44.4267 5.24118C45.5467 2.20118 48.16 0.761182 50.9333 0.761182C52.9067 0.761182 55.04 1.56118 56.3733 3.42785C57.8667 5.45451 57.5467 8.38785 57.5467 11.0012V26.2545C57.5467 26.7345 57.12 27.1078 56.64 27.1078H52C51.52 27.0545 51.1467 26.6812 51.1467 26.2545V13.4545C51.1467 12.4412 51.2533 9.88117 51.04 8.92118C50.6667 7.32117 49.6533 6.84118 48.2667 6.84118C47.1467 6.84118 45.92 7.58785 45.44 8.81452C44.96 10.0412 45.0133 12.0678 45.0133 13.4545V26.2545C45.0133 26.7345 44.5867 27.1078 44.1067 27.1078H39.4133C38.9333 27.0545 38.56 26.6812 38.56 26.2545V13.4545C38.56 10.7878 38.9867 6.78784 35.68 6.78784C32.32 6.78784 32.4267 10.6278 32.4267 13.4545V26.2545C32.3733 26.6812 32 27.0545 31.4667 27.0545ZM118.4 0.761182C125.387 0.761182 129.173 6.73451 129.173 14.3612C129.173 21.7212 125.013 27.5878 118.4 27.5878C111.573 27.5878 107.84 21.6145 107.84 14.1479C107.787 6.62785 111.573 0.761182 118.4 0.761182ZM118.4 5.72117C114.933 5.72117 114.72 10.4679 114.72 13.4012C114.72 16.3345 114.667 22.6278 118.347 22.6278C121.973 22.6278 122.187 17.5612 122.187 14.4679C122.187 12.4412 122.08 9.98785 121.493 8.06785C120.96 6.36119 119.893 5.72117 118.4 5.72117ZM138.187 27.0545H133.493C133.013 27.0012 132.64 26.6279 132.64 26.2012V2.04118C132.693 1.61451 133.067 1.24118 133.547 1.24118H137.92C138.347 1.24118 138.667 1.56119 138.773 1.93452V5.61452H138.88C140.213 2.30785 142.027 0.761182 145.28 0.761182C147.36 0.761182 149.44 1.50784 150.773 3.58784C152 5.50784 152 8.76118 152 11.1078V26.3078C151.947 26.7345 151.573 27.0545 151.093 27.0545H146.4C145.973 27.0012 145.6 26.6812 145.547 26.3078V13.1878C145.547 10.5212 145.867 6.68118 142.613 6.68118C141.493 6.68118 140.427 7.42785 139.893 8.60119C139.253 10.0945 139.147 11.5345 139.147 13.1878V26.2012C139.093 26.6812 138.667 27.0545 138.187 27.0545ZM75.52 15.5345C75.52 17.3479 75.5733 18.8945 74.6667 20.5478C73.92 21.8812 72.7467 22.6812 71.4133 22.6812C69.6 22.6812 68.5333 21.2945 68.5333 19.2679C68.5333 15.2679 72.1067 14.5212 75.52 14.5212V15.5345ZM80.2667 27.0012C79.9467 27.2679 79.52 27.3212 79.1467 27.1078C77.6 25.8278 77.28 25.1878 76.4267 23.9612C73.8667 26.5745 72 27.3745 68.6933 27.3745C64.7467 27.3745 61.6533 24.9212 61.6533 20.0679C61.6533 16.2279 63.7333 13.6678 66.6667 12.3878C69.2267 11.2678 72.8 11.0545 75.52 10.7345V10.1479C75.52 9.02785 75.6267 7.69452 74.9333 6.73452C74.3467 5.88119 73.28 5.50784 72.32 5.50784C70.5067 5.50784 68.9067 6.41452 68.5333 8.33452C68.4267 8.76119 68.16 9.18784 67.7333 9.18784L63.2 8.70784C62.8267 8.60118 62.4 8.33452 62.5067 7.74785C63.5733 2.20118 68.5333 0.547852 73.0133 0.547852C75.3067 0.547852 78.2933 1.13451 80.1067 2.89451C82.4 5.02785 82.1867 7.90785 82.1867 11.0012V18.3078C82.1867 20.4945 83.0933 21.4545 83.9467 22.6812C84.2667 23.1079 84.32 23.6412 83.9467 23.9078C82.9333 24.7078 81.2267 26.2012 80.2667 27.0012ZM13.92 15.5345C13.92 17.3479 13.9733 18.8945 13.0667 20.5478C12.32 21.8812 11.1467 22.6812 9.81333 22.6812C8 22.6812 6.93333 21.2945 6.93333 19.2679C6.93333 15.2679 10.5067 14.5212 13.92 14.5212V15.5345ZM18.6133 27.0012C18.2933 27.2679 17.8667 27.3212 17.4933 27.1078C15.9467 25.8278 15.6267 25.1878 14.7733 23.9612C12.2133 26.5745 10.3467 27.3745 7.04 27.3745C3.09333 27.3745 0 24.9212 0 20.0679C0 16.2279 2.08 13.6678 5.01333 12.3878C7.57333 11.2678 11.1467 11.0545 13.8667 10.7345V10.1479C13.8667 9.02785 13.9733 7.69452 13.28 6.73452C12.6933 5.88119 11.6267 5.50784 10.6667 5.50784C8.85333 5.50784 7.25333 6.41452 6.88 8.33452C6.77333 8.76119 6.50666 9.18784 6.08 9.18784L1.54666 8.70784C1.17333 8.60118 0.74667 8.33452 0.853337 7.74785C1.92 2.20118 6.88 0.547852 11.36 0.547852C13.6533 0.547852 16.64 1.13451 18.4533 2.89451C20.7467 5.02785 20.5333 7.90785 20.5333 11.0012V18.3078C20.5333 20.4945 21.44 21.4545 22.2933 22.6812C22.6133 23.1079 22.6667 23.6412 22.2933 23.9078C21.28 24.7078 19.5733 26.2012 18.6133 27.0012Z" fill="#919191"/>
</svg>
