<svg width="144" height="55" viewBox="0 0 144 55" fill="none" xmlns="http://www.w3.org/2000/svg">
<g clip-path="url(#clip0_99_540)">
<path d="M118.613 15.0293C115.336 15.0297 112.194 16.3338 109.877 18.6547C107.561 20.9757 106.259 24.1234 106.259 27.4055C106.259 30.6879 107.561 33.8358 109.878 36.1568C112.195 38.4778 115.337 39.7817 118.614 39.7817C121.891 39.7817 125.034 38.4778 127.351 36.1568C129.668 33.8358 130.969 30.6879 130.969 27.4055C130.969 24.1231 129.668 20.9752 127.351 18.6542C125.034 16.3332 121.89 15.0293 118.613 15.0293ZM118.613 34.348C117.694 34.3613 116.782 34.1915 115.93 33.8486C115.078 33.5057 114.302 32.9965 113.648 32.3506C112.993 31.7047 112.474 30.9349 112.119 30.0861C111.765 29.2373 111.582 28.3264 111.582 27.4062C111.582 26.4861 111.765 25.5752 112.119 24.7264C112.474 23.8775 112.993 23.1078 113.648 22.4619C114.302 21.816 115.078 21.3068 115.93 20.9638C116.782 20.6209 117.694 20.4512 118.613 20.4644C120.433 20.4907 122.171 21.2337 123.449 22.5326C124.727 23.8316 125.444 25.5823 125.444 27.4062C125.444 29.2302 124.727 30.9808 123.449 32.2798C122.171 33.5788 120.433 34.3217 118.613 34.348ZM50.5972 15.4981H55.7927L63.6681 30.3077L71.5075 15.4981H76.739V39.3173H70.8969V26.5905L64.247 39.3173H63.0907L56.4407 26.6237V39.3173H50.5987L50.5972 15.4981ZM32.9543 15.5803H27.0906V29.8029C27.0705 30.8785 26.6298 31.9033 25.8633 32.6568C25.0968 33.4104 24.0657 33.8326 22.9917 33.8326C21.9177 33.8326 20.8866 33.4104 20.1201 32.6568C19.3535 31.9033 18.9128 30.8785 18.8927 29.8029H13.029C13.0132 31.1235 13.2592 32.4342 13.7527 33.6589C14.2463 34.8836 14.9776 35.9979 15.9043 36.9374C16.831 37.8769 17.9346 38.6228 19.1512 39.1319C20.3678 39.641 21.6732 39.9032 22.9917 39.9032C24.3102 39.9032 25.6155 39.641 26.8321 39.1319C28.0487 38.6228 29.1524 37.8769 30.0791 36.9374C31.0058 35.9979 31.7371 34.8836 32.2306 33.6589C32.7242 32.4342 32.9702 31.1235 32.9543 29.8029V15.5803ZM91.3319 15.4981H82.5479V39.3173H91.3319C94.4852 39.3173 97.5093 38.0625 99.739 35.829C101.969 33.5955 103.221 30.5663 103.221 27.4077C103.221 24.2491 101.969 21.2198 99.739 18.9863C97.5093 16.7528 94.4852 15.4981 91.3319 15.4981ZM90.6191 34.348H88.3929V20.4644H90.6191C92.4571 20.4644 94.2198 21.1958 95.5194 22.4976C96.819 23.7995 97.5491 25.5652 97.5491 27.4062C97.5491 29.2473 96.819 31.013 95.5194 32.3148C94.2198 33.6167 92.4571 34.348 90.6191 34.348ZM44.6975 15.5803H38.8137V39.2365H44.6975V15.5803Z" fill="#919191"/>
<path d="M140.453 4.29494V50.5211H3.54672V4.29494H140.453ZM144 0.742188H0V54.0739H144V0.742188Z" fill="#919191"/>
</g>
<defs>
<clipPath id="clip0_99_540">
<rect width="144" height="53.3706" fill="white" transform="translate(0 0.742188)"/>
</clipPath>
</defs>
</svg>
