<svg width="160" height="49" viewBox="0 0 160 49" fill="none" xmlns="http://www.w3.org/2000/svg">
<path d="M23.994 0.433594C10.7428 0.433594 0 11.1761 0 24.4273C0 37.68 10.7428 48.4219 23.994 48.4219C37.2458 48.4219 47.988 37.68 47.988 24.4273C47.988 11.1769 37.2464 0.434739 23.9937 0.434739L23.994 0.433594ZM34.9975 35.0394C34.5666 35.7463 33.6457 35.9677 32.9411 35.5371C27.3067 32.0934 20.2148 31.3155 11.8627 33.2235C11.0579 33.408 10.2557 32.9034 10.0723 32.0989C9.88807 31.294 10.3903 30.4918 11.1972 30.3084C20.3371 28.2188 28.1772 29.1182 34.5015 32.9828C35.2064 33.4154 35.4301 34.3346 34.9975 35.0394ZM37.9343 28.5071C37.3917 29.3875 36.2404 29.6637 35.3611 29.1231C28.913 25.1594 19.0805 24.0113 11.4519 26.327C10.4625 26.6258 9.4176 26.0682 9.11733 25.0806C8.81935 24.0912 9.37721 23.0483 10.3648 22.7474C19.0788 20.1035 29.9115 21.3842 37.318 25.9356C38.1976 26.4771 38.4758 27.6286 37.9343 28.5071ZM38.1865 21.7039C30.4521 17.1107 17.6946 16.6884 10.3112 18.9293C9.12563 19.2889 7.87182 18.6195 7.51252 17.4339C7.15323 16.2477 7.82196 14.9948 9.00844 14.6343C17.484 12.0614 31.5736 12.5585 40.4769 17.8439C41.5433 18.4769 41.8932 19.8542 41.2611 20.9192C40.6307 21.9856 39.2494 22.3371 38.1865 21.7039ZM65.2798 22.5841C61.137 21.5962 60.3995 20.9028 60.3995 19.4459C60.3995 18.0694 61.6954 17.1431 63.6225 17.1431C65.4906 17.1431 67.343 17.8465 69.285 19.2946C69.3437 19.3384 69.4174 19.3559 69.4899 19.3445C69.5624 19.3336 69.6265 19.2937 69.6689 19.2339L71.6918 16.3824C71.7749 16.2649 71.7522 16.1031 71.6402 16.0134C69.3288 14.1587 66.7261 13.2571 63.6839 13.2571C59.2107 13.2571 56.0862 15.9414 56.0862 19.7823C56.0862 23.901 58.7815 25.3594 63.4392 26.4851C67.4035 27.3982 68.0725 28.1632 68.0725 29.5308C68.0725 31.0462 66.7195 31.9883 64.5423 31.9883C62.1241 31.9883 60.1516 31.1737 57.9451 29.2629C57.8904 29.2156 57.8153 29.1942 57.746 29.1982C57.673 29.2042 57.6062 29.238 57.5598 29.2939L55.2917 31.9932C55.1966 32.1052 55.2086 32.2725 55.3186 32.3694C57.8859 34.6612 61.0433 35.8718 64.4506 35.8718C69.2707 35.8718 72.3855 33.2381 72.3855 29.1618C72.3941 25.7207 70.334 23.8153 65.2884 22.5879L65.2798 22.5841ZM83.2904 18.4984C81.2011 18.4984 79.4874 19.3212 78.0743 21.0074V19.1095C78.0743 18.9597 77.9528 18.8376 77.8032 18.8376H74.0937C73.9438 18.8376 73.8226 18.9597 73.8226 19.1095V40.1979C73.8226 40.3478 73.9438 40.4698 74.0937 40.4698H77.8032C77.9528 40.4698 78.0743 40.3478 78.0743 40.1979V33.5412C79.4877 35.1274 81.2017 35.9024 83.2904 35.9024C87.1724 35.9024 91.1023 32.914 91.1023 27.2014C91.1081 21.4873 87.177 18.4981 83.2947 18.4981L83.2904 18.4984ZM86.7888 27.2014C86.7888 30.1104 84.9969 32.1404 82.4311 32.1404C79.8945 32.1404 77.9812 30.0182 77.9812 27.2014C77.9812 24.3849 79.8945 22.2624 82.4311 22.2624C84.9553 22.2621 86.7888 24.3391 86.7888 27.2014ZM101.175 18.4984C96.1755 18.4984 92.2587 22.348 92.2587 27.2636C92.2587 32.1255 96.1485 35.9348 101.114 35.9348C106.131 35.9348 110.06 32.098 110.06 27.2014C110.06 22.3217 106.157 18.4984 101.175 18.4984ZM101.175 32.1694C98.5157 32.1694 96.511 30.0328 96.511 27.2C96.511 24.3551 98.4464 22.2907 101.114 22.2907C103.79 22.2907 105.808 24.4273 105.808 27.2621C105.808 30.1064 103.86 32.1694 101.175 32.1694ZM120.736 18.8376H116.654V14.6642C116.654 14.5146 116.533 14.3925 116.383 14.3925H112.674C112.524 14.3925 112.402 14.5146 112.402 14.6642V18.8376H110.618C110.469 18.8376 110.348 18.9597 110.348 19.1095V22.2976C110.348 22.4472 110.469 22.5695 110.618 22.5695H112.402V30.8187C112.402 34.1524 114.061 35.8425 117.333 35.8425C118.664 35.8425 119.768 35.5678 120.808 34.9778C120.893 34.9305 120.945 34.8394 120.945 34.7426V31.7066C120.945 31.6129 120.897 31.5244 120.816 31.4754C120.736 31.4247 120.635 31.4221 120.552 31.4631C119.838 31.8227 119.147 31.9886 118.375 31.9886C117.184 31.9886 116.654 31.4482 116.654 30.2371V22.571H120.736C120.885 22.571 121.006 22.4489 121.006 22.2991V19.1112C121.012 18.9614 120.891 18.8393 120.74 18.8393L120.736 18.8376ZM134.958 18.8539V18.3413C134.958 16.8334 135.537 16.1609 136.833 16.1609C137.607 16.1609 138.228 16.3145 138.924 16.5466C139.009 16.5735 139.099 16.5601 139.168 16.5088C139.24 16.4575 139.28 16.3752 139.28 16.2881V13.1622C139.28 13.0427 139.204 12.937 139.088 12.9018C138.353 12.6831 137.413 12.4588 136.005 12.4588C132.579 12.4588 130.768 14.3882 130.768 18.0365V18.8215H128.986C128.836 18.8215 128.713 18.9436 128.713 19.0932V22.2976C128.713 22.4472 128.836 22.5695 128.986 22.5695H130.768V35.2935C130.768 35.4434 130.889 35.5654 131.038 35.5654H134.748C134.898 35.5654 135.02 35.4434 135.02 35.2935V22.5704H138.483L143.789 35.2913C143.186 36.6279 142.594 36.8938 141.786 36.8938C141.132 36.8938 140.444 36.6987 139.74 36.3136C139.674 36.2772 139.595 36.2712 139.524 36.2932C139.453 36.3182 139.394 36.3709 139.364 36.4396L138.106 39.198C138.047 39.3283 138.098 39.4813 138.223 39.5489C139.536 40.2598 140.721 40.5632 142.185 40.5632C144.924 40.5632 146.438 39.2873 147.773 35.8548L154.208 19.2252C154.241 19.1416 154.231 19.047 154.18 18.9728C154.129 18.8992 154.046 18.8548 153.956 18.8548H150.095C149.979 18.8548 149.875 18.9284 149.838 19.037L145.882 30.3368L141.549 19.0296C141.509 18.9244 141.408 18.8548 141.295 18.8548H134.958L134.958 18.8539ZM126.712 18.8376H123.003C122.853 18.8376 122.731 18.9597 122.731 19.1095V35.2936C122.731 35.4434 122.853 35.5655 123.003 35.5655H126.712C126.862 35.5655 126.984 35.4434 126.984 35.2936V19.1106C126.984 19.0749 126.977 19.0395 126.964 19.0064C126.95 18.9734 126.93 18.9434 126.905 18.9181C126.879 18.8928 126.849 18.8728 126.816 18.8592C126.783 18.8456 126.748 18.8386 126.712 18.8387L126.712 18.8376ZM124.879 11.4686C123.409 11.4686 122.217 12.6582 122.217 14.1278C122.217 15.5982 123.409 16.7893 124.879 16.7893C126.348 16.7893 127.539 15.5982 127.539 14.1278C127.539 12.6585 126.347 11.4686 124.88 11.4686H124.879ZM157.376 24.0411C155.908 24.0411 154.765 22.862 154.765 21.4303C154.765 19.9986 155.923 18.8061 157.389 18.8061C158.858 18.8061 160 19.9848 160 21.4154C160 22.8472 158.843 24.0411 157.376 24.0411ZM157.39 19.0657C156.053 19.0657 155.041 20.1287 155.041 21.4303C155.041 22.7314 156.046 23.7801 157.377 23.7801C158.714 23.7801 159.726 22.7179 159.726 21.4154C159.726 20.1143 158.721 19.0657 157.391 19.0657H157.39ZM157.969 21.6839L158.707 22.7177H158.085L157.42 21.7693H156.848V22.7177H156.327V19.9774H157.549C158.186 19.9774 158.604 20.3031 158.604 20.8516C158.607 21.3008 158.347 21.5753 157.971 21.6839L157.969 21.6839ZM157.528 20.4476H156.848V21.3143H157.528C157.867 21.3143 158.069 21.1484 158.069 20.8805C158.069 20.5986 157.866 20.4476 157.528 20.4476Z" fill="#919191"/>
</svg>
