<svg width="112" height="45" viewBox="0 0 112 45" fill="none" xmlns="http://www.w3.org/2000/svg">
<path d="M0 0.444207C0 0.444207 4.43961 -0.115793 7.39934 2.50611C9.22623 4.12368 9.75869 6.70152 9.75869 6.70152L15.803 30.2344L20.8302 10.974C21.3186 8.92683 22.2017 6.3949 23.5971 4.68368C25.3781 2.50427 28.9933 2.36657 29.3789 2.36657C29.7645 2.36657 33.3778 2.50427 35.157 4.68368C36.5524 6.3949 37.4355 8.92499 37.9258 10.974L42.9529 30.2344L48.9954 6.70152C48.9954 6.70152 49.5297 4.12368 51.3566 2.50611C54.3163 -0.115793 58.7541 0.444207 58.7541 0.444207L47.1795 44.4235C47.1795 44.4235 43.3624 44.7007 41.451 43.7221C38.9411 42.4369 37.7495 41.4454 36.2292 35.4598C35.4609 32.3984 34.702 29.3346 33.9525 26.2685L33.6679 25.1136C32.8656 21.8417 32.0651 18.5827 31.5014 16.3152L31.226 15.2135C30.9726 14.2147 30.7982 13.5427 30.7357 13.3407C30.565 12.7881 30.3612 11.4716 29.377 11.4716C28.4149 11.4716 28.1928 12.7899 28.0184 13.3407C27.9541 13.5427 27.7797 14.2129 27.5281 15.2135L27.2527 16.3152C26.6665 18.6715 26.0851 21.029 25.5085 23.3877L25.2257 24.5371C24.3366 28.1812 23.4369 31.8227 22.5267 35.4617C21.0064 41.4454 19.813 42.4387 17.3031 43.7221C15.3917 44.7007 11.5746 44.4235 11.5746 44.4235L0 0.444207ZM69.7668 7.7389V9.32709H69.7705V35.8748C69.7503 41.3224 69.2233 42.5323 66.9319 43.7864C65.1509 44.7613 62.4262 44.3923 62.4262 44.3923V14.6535C62.4262 13.1608 62.8889 12.1822 64.5946 11.3045C65.6136 10.7794 66.5629 10.3773 67.5507 9.78244C68.9002 8.97457 69.5851 8.01431 69.7356 7.78663L69.7668 7.7389ZM73.4426 0.591092C73.4426 0.591092 79.4227 -0.468318 82.3843 2.33535C84.0496 3.91254 85.8912 6.60054 86.3079 7.22113L86.3869 7.33863L86.3961 7.35332L91.6105 15.1676C91.862 15.5734 92.1925 16.0159 92.7213 16.0159C93.2483 16.0159 93.5806 15.5752 93.834 15.1676L99.0466 7.35332L99.0557 7.33863L99.1347 7.22113C99.5515 6.60054 101.393 3.91254 103.06 2.33352C106.02 -0.468318 112 0.589256 112 0.589256L97.8311 22.5045L111.961 44.3482C111.961 44.3482 105.844 45.1671 102.882 42.3634C100.987 40.5714 99.0466 37.6539 99.0466 37.6539L93.8321 29.8415C93.5806 29.4339 93.2483 28.9914 92.7213 28.9914C92.1925 28.9914 91.862 29.432 91.6087 29.8415L86.3961 37.6539C86.3961 37.6539 84.5618 40.5714 82.6689 42.3634C79.7073 45.1671 73.4793 44.3482 73.4793 44.3482L87.6097 22.5045L73.4426 0.591092ZM69.7521 0.394633H69.7705C69.7705 3.31398 69.4951 5.04906 67.7325 6.39673C66.9142 7.02559 66.0119 7.5367 65.0518 7.91516C64.0783 8.29495 63.1869 8.85846 62.4262 9.57496C62.4262 4.25772 63.2029 2.33168 65.2905 1.19149C66.5886 0.482765 68.7203 0.401978 69.4859 0.394633H69.7521Z" fill="#919191"/>
</svg>
