<svg width="152" height="51" viewBox="0 0 152 51" fill="none" xmlns="http://www.w3.org/2000/svg">
<path d="M147.528 30.957L151.759 33.7773C150.386 35.7998 147.102 39.2695 141.424 39.2695C134.373 39.2695 129.122 33.8145 129.122 26.875C129.122 19.4902 134.429 14.4805 140.83 14.4805C147.269 14.4805 150.423 19.6016 151.443 22.3662L152 23.7764L135.412 30.6416C136.674 33.1279 138.641 34.3897 141.424 34.3897C144.207 34.3897 146.137 33.0166 147.528 30.957ZM134.521 26.4854L145.599 21.8838C144.986 20.3438 143.168 19.249 140.997 19.249C138.232 19.249 134.392 21.6982 134.521 26.4854Z" fill="#919191"/>
<path d="M121.125 1.84473H126.469V38.1377H121.125V1.84473Z" fill="#919191"/>
<path d="M112.701 15.4453H117.859V37.4883C117.859 46.6357 112.46 50.4023 106.077 50.4023C100.065 50.4023 96.4473 46.3574 95.0928 43.0732L99.8242 41.1064C100.678 43.1289 102.737 45.5225 106.077 45.5225C110.178 45.5225 112.701 42.9805 112.701 38.2305V36.4492H112.516C111.291 37.9336 108.953 39.2695 105.984 39.2695C99.7871 39.2695 94.1094 33.8701 94.1094 26.9121C94.1094 19.917 99.7871 14.4619 105.984 14.4619C108.935 14.4619 111.291 15.7793 112.516 17.2266H112.701V15.4453ZM113.072 26.9121C113.072 22.5332 110.159 19.3418 106.448 19.3418C102.7 19.3418 99.5459 22.5332 99.5459 26.9121C99.5459 31.2354 102.7 34.3711 106.448 34.3711C110.159 34.3897 113.072 31.2354 113.072 26.9121Z" fill="#919191"/>
<path d="M64.7744 26.8193C64.7744 33.9629 59.208 39.2139 52.3799 39.2139C45.5518 39.2139 39.9854 33.9443 39.9854 26.8193C39.9854 19.6387 45.5518 14.4062 52.3799 14.4062C59.208 14.4062 64.7744 19.6387 64.7744 26.8193ZM59.3564 26.8193C59.3564 22.3662 56.1279 19.3047 52.3799 19.3047C48.6318 19.3047 45.4033 22.3662 45.4033 26.8193C45.4033 31.2354 48.6318 34.334 52.3799 34.334C56.1279 34.334 59.3564 31.2354 59.3564 26.8193Z" fill="#919191"/>
<path d="M91.8457 26.875C91.8457 34.0186 86.2793 39.2695 79.4512 39.2695C72.623 39.2695 67.0566 34.0186 67.0566 26.875C67.0566 19.6943 72.623 14.4805 79.4512 14.4805C86.2793 14.4805 91.8457 19.6758 91.8457 26.875ZM86.4092 26.875C86.4092 22.4219 83.1807 19.3604 79.4326 19.3604C75.6846 19.3604 72.4561 22.4219 72.4561 26.875C72.4561 31.291 75.6846 34.3897 79.4326 34.3897C83.1992 34.3897 86.4092 31.2725 86.4092 26.875Z" fill="#919191"/>
<path d="M19.6123 33.833C11.8379 33.833 5.75195 27.5615 5.75195 19.7871C5.75195 12.0127 11.8379 5.74121 19.6123 5.74121C23.8057 5.74121 26.8672 7.39258 29.1309 9.50781L32.8603 5.77832C29.7061 2.75391 25.4941 0.453125 19.6123 0.453125C8.96191 0.453125 0 9.13672 0 19.7871C0 30.4375 8.96191 39.1211 19.6123 39.1211C25.3643 39.1211 29.7061 37.2285 33.1016 33.7031C36.5898 30.2148 37.666 25.3164 37.666 21.3457C37.666 20.1025 37.5176 18.8223 37.3506 17.876H19.6123V23.0342H32.248C31.877 26.2627 30.8564 28.4707 29.3535 29.9736C27.5352 31.8105 24.6592 33.833 19.6123 33.833Z" fill="#919191"/>
</svg>
