<svg width="360" height="357" viewBox="0 0 360 357" fill="none" xmlns="http://www.w3.org/2000/svg">
    <path
        d="M171.54 356.53C147.12 356.53 125.73 335.14 125.73 310.72V234.37H186.81V259.81C186.81 281.71 205.65 300.52 227.52 300.52H263.16C282.51 300.52 298.8 284.23 298.8 264.88C298.8 247.57 287.61 231.79 275.88 226.18L153.21 168.67C137.94 161.53 125.73 142.21 125.73 125.41V46.03C125.73 21.61 147.12 0.219971 171.54 0.219971H314.07C338.49 0.219971 359.88 21.61 359.88 46.03V122.38H298.8V96.94C298.8 75.04 279.96 56.23 258.09 56.23H222.45C203.1 56.23 186.81 72.52 186.81 91.87C186.81 109.18 198 124.96 209.73 130.57L332.4 188.08C347.67 195.22 359.88 214.54 359.88 231.34V310.75C359.88 335.17 338.49 356.56 314.07 356.56H171.54V356.53Z"
        fill="white" />
    <path
        d="M40.83 307.09C63.3798 307.09 81.66 288.81 81.66 266.26C81.66 243.71 63.3798 225.43 40.83 225.43C18.2802 225.43 0 243.71 0 266.26C0 288.81 18.2802 307.09 40.83 307.09Z"
        fill="white" />
    <path
        d="M40.83 131.44C63.3798 131.44 81.66 113.16 81.66 90.6099C81.66 68.0601 63.3798 49.7799 40.83 49.7799C18.2802 49.7799 0 68.0601 0 90.6099C0 113.16 18.2802 131.44 40.83 131.44Z"
        fill="white" />
</svg>