<svg width="341" height="60" viewBox="0 0 341 60" fill="none" xmlns="http://www.w3.org/2000/svg">
    <g clip-path="url(#clip0_614_9242)">
        <path
            d="M297.555 59.385V0H329.455C333.525 0 337.09 3.565 337.09 7.635V27.23C337.09 30.795 334.29 33.425 330.725 33.425C327.925 33.425 326.485 35.97 328.01 38.515L340.225 59.385H328.435L314.52 35.63C312.485 32.065 307.735 33.765 307.735 37.41V59.385H297.555ZM306.04 17.39C306.04 21.97 309.945 25.875 314.525 25.875H320.125C324.705 25.875 328.61 21.97 328.61 17.39C328.61 12.81 324.705 8.905 320.125 8.905H314.525C309.945 8.905 306.04 12.81 306.04 17.39Z"
            fill="#23221A" />
        <path
            d="M261.112 59.385C257.042 59.385 253.477 55.82 253.477 51.75V7.635C253.472 3.565 257.037 0 261.112 0H284.867C288.937 0 292.502 3.565 292.502 7.635V51.75C292.502 55.82 288.937 59.385 284.867 59.385H261.112ZM263.657 42.42C263.657 47.425 267.982 51.75 272.987 51.75C277.992 51.75 282.317 47.425 282.317 42.42V16.97C282.317 11.965 277.992 7.64 272.987 7.64C267.982 7.64 263.657 11.965 263.657 16.97V42.42Z"
            fill="#23221A" />
        <path
            d="M225.521 14.42C225.521 11.62 223.231 9.33 220.431 9.33H210.336V0H250.886V9.33H240.791C237.991 9.33 235.701 11.62 235.701 14.42V59.385H225.521V14.42Z"
            fill="#23221A" />
        <path
            d="M177.182 59.385C173.112 59.385 169.547 55.82 169.547 51.75V7.635C169.547 3.565 173.112 0 177.182 0H200.937C205.007 0 208.572 3.565 208.572 7.635V21.55H198.392V16.97C198.392 11.965 194.067 7.64 189.062 7.64C184.057 7.64 179.732 11.965 179.732 16.97V42.42C179.732 47.425 184.057 51.75 189.062 51.75C194.067 51.75 198.392 47.425 198.392 42.42V37.84H208.572V51.755C208.572 55.825 205.007 59.39 200.937 59.39H177.182V59.385Z"
            fill="#23221A" />
        <path
            d="M133.258 59.385V0H165.668V9.33H148.533C145.733 9.33 143.443 11.62 143.443 14.42V18.07C143.443 20.87 145.733 23.16 148.533 23.16H165.668V32.49H148.533C145.733 32.49 143.443 34.78 143.443 37.58V44.96C143.443 47.76 145.733 50.05 148.533 50.05H165.668V59.38H133.258V59.385Z"
            fill="#23221A" />
        <path d="M100.109 59.385V0H110.289V44.965C110.289 47.765 112.579 50.055 115.379 50.055H131.414V59.385H100.109Z"
            fill="#23221A" />
        <path
            d="M63.8203 59.385V0H96.2303V9.33H79.0953C76.2953 9.33 74.0053 11.62 74.0053 14.42V18.07C74.0053 20.87 76.2953 23.16 79.0953 23.16H96.2303V32.49H79.0953C76.2953 32.49 74.0053 34.78 74.0053 37.58V44.96C74.0053 47.76 76.2953 50.05 79.0953 50.05H96.2303V59.38H63.8203V59.385Z"
            fill="#23221A" />
        <path
            d="M28.5881 59.385C24.5181 59.385 20.9531 55.82 20.9531 51.75V39.025H31.1331V43.265C31.1331 46.915 34.2731 50.05 37.9181 50.05H43.8581C47.0831 50.05 49.7981 47.335 49.7981 44.11C49.7981 41.225 47.9331 38.595 45.9781 37.66L25.5331 28.075C22.9881 26.885 20.9531 23.665 20.9531 20.865V7.635C20.9531 3.565 24.5181 0 28.5881 0H52.3431C56.4131 0 59.9781 3.565 59.9781 7.635V20.36H49.7981V16.12C49.7981 12.47 46.6581 9.335 43.0131 9.335H37.0731C33.8481 9.335 31.1331 12.05 31.1331 15.275C31.1331 18.16 32.9981 20.79 34.9531 21.725L55.3981 31.31C57.9431 32.5 59.9781 35.72 59.9781 38.52V51.755C59.9781 55.825 56.4131 59.39 52.3431 59.39H28.5881V59.385Z"
            fill="#23221A" />
        <path
            d="M6.805 51.1452C10.5633 51.1452 13.61 48.0985 13.61 44.3402C13.61 40.5819 10.5633 37.5352 6.805 37.5352C3.0467 37.5352 0 40.5819 0 44.3402C0 48.0985 3.0467 51.1452 6.805 51.1452Z"
            fill="#23221A" />
        <path
            d="M6.805 21.8717C10.5633 21.8717 13.61 18.825 13.61 15.0667C13.61 11.3084 10.5633 8.26172 6.805 8.26172C3.0467 8.26172 0 11.3084 0 15.0667C0 18.825 3.0467 21.8717 6.805 21.8717Z"
            fill="#23221A" />
    </g>
    <defs>
        <clipPath id="clip0_614_9242">
            <rect width="340.23" height="59.385" fill="white" />
        </clipPath>
    </defs>
</svg>