<svg width="168" height="47" viewBox="0 0 168 47" fill="none" xmlns="http://www.w3.org/2000/svg">
<path d="M0 11.4794H9.9995L15.8043 26.3515L21.6938 11.4794H31.4391L16.7788 46.7318H6.99117L11.0164 37.4103L0 11.4794ZM41.5657 10.8862C34.0661 10.8862 29.3206 17.6231 29.3206 24.3177C29.3206 31.8597 34.5322 37.834 41.4386 37.834C46.6078 37.834 48.5569 34.6985 48.5569 34.6985V37.156H57.2852V11.4794H48.5569V13.8098C48.5145 13.8098 46.3536 10.8862 41.5657 10.8862ZM43.43 19.1485C46.9044 19.1485 48.684 21.9026 48.684 24.3601C48.684 27.0294 46.7773 29.6564 43.43 29.6564C40.6759 29.6564 38.176 27.4108 38.176 24.4872C38.176 21.5212 40.1675 19.1485 43.43 19.1485ZM60.2512 37.156V0.124023H69.3609V13.8945C69.3609 13.8945 71.5218 10.8862 76.0555 10.8862C81.6061 10.8862 84.8686 15.0385 84.8686 20.9281V37.156H75.8013V23.1313C75.8013 21.1399 74.8691 19.1909 72.7082 19.1909C70.5049 19.1909 69.3609 21.1399 69.3609 23.1313V37.156H60.2512ZM100.419 10.8862C91.8174 10.8862 86.6905 17.4113 86.6905 24.4448C86.6905 32.4105 92.8767 37.8763 100.461 37.8763C107.791 37.8763 114.189 32.6647 114.189 24.5719C114.189 15.7165 107.452 10.8862 100.419 10.8862ZM100.503 19.1909C103.554 19.1909 105.63 21.7331 105.63 24.4025C105.63 26.6905 103.681 29.5293 100.503 29.5293C97.5798 29.5293 95.4189 27.1989 95.4189 24.3601C95.4189 21.6907 97.1985 19.1909 100.503 19.1909ZM129.358 10.8862C120.757 10.8862 115.63 17.4113 115.63 24.4448C115.63 32.4105 121.816 37.8763 129.4 37.8763C136.73 37.8763 143.128 32.6647 143.128 24.5719C143.128 15.7165 136.434 10.8862 129.358 10.8862ZM129.443 19.1909C132.493 19.1909 134.569 21.7331 134.569 24.4025C134.569 26.6905 132.62 29.5293 129.443 29.5293C126.519 29.5293 124.358 27.1989 124.358 24.3601C124.358 21.6907 126.18 19.1909 129.443 19.1909ZM150.331 25.5888C153.679 25.5888 156.39 28.3006 156.39 31.6478C156.39 34.9951 153.679 37.7069 150.331 37.7069C146.984 37.7069 144.272 34.9951 144.272 31.6478C144.272 28.3006 146.984 25.5888 150.331 25.5888ZM158.382 23.3856H147.493L157.153 0.124023H168L158.382 23.3856Z" fill="#919191"/>
</svg>
